
<svg width="128" height="59" viewBox="0 0 128 59" fill="none" xmlns="http://www.w3.org/2000/svg">
<path d="M113.425 20.5735V19.151H111.64V20.5735L113.434 21.6315L113.425 20.5735Z" fill="#141B3D"/>
<path d="M65.1455 19.4087H67.3898L76.7999 33.9542H74.5998L65.1455 19.4087Z" fill="#141B3D"/>
<path d="M76.5176 19.4088H74.2734L64.8633 33.9543H67.0634L76.5176 19.4088Z" fill="#141B3D"/>
<path d="M127.597 24.8056L126.13 25.6947L125.812 25.3213C125.016 24.4059 123.905 23.8268 122.703 23.6999C121.5 23.5729 120.295 23.9075 119.327 24.6367C118.696 25.1418 118.221 25.817 117.957 26.5836C117.693 27.3502 117.651 28.1764 117.837 28.966C118.022 29.7555 118.427 30.4757 119.003 31.0426C119.58 31.6094 120.305 31.9995 121.094 32.1673C121.963 32.3888 122.877 32.3531 123.727 32.0645C124.576 31.7759 125.325 31.2466 125.883 30.5402L126.104 30.2913C126.563 30.6025 126.987 30.8959 127.579 31.2604C127.221 31.7065 126.841 32.1339 126.44 32.5407C124.301 34.4256 119.839 34.6567 117.436 32.025C116.761 31.2616 116.291 30.3375 116.07 29.3401C115.849 28.3427 115.885 27.3051 116.175 26.3256C116.464 25.3462 116.997 24.4573 117.724 23.7432C118.45 23.0291 119.345 22.5134 120.325 22.245C121.976 21.7693 123.744 21.9212 125.291 22.6718C126.137 23.0542 126.857 23.671 127.367 24.45C127.44 24.5423 127.52 24.6285 127.606 24.7078L127.597 24.8056Z" fill="#141B3D"/>
<path d="M88.6494 30.3178L90.0896 31.2692C89.8131 31.6282 89.5182 31.9724 89.206 32.3005C88.2783 33.1974 87.0762 33.7521 85.7954 33.8742C84.6736 34.0999 83.512 34.0158 82.434 33.6307C81.3559 33.2456 80.4015 32.5739 79.6722 31.687C79.0445 30.8798 78.6327 29.9241 78.4761 28.9113C78.3196 27.8984 78.4234 26.8621 78.7778 25.9011C79.1322 24.9401 79.7253 24.0864 80.5005 23.4215C81.2758 22.7565 82.2074 22.3025 83.2065 22.1027C84.8375 21.7397 86.5435 21.9696 88.022 22.7517C88.895 23.2031 89.6056 23.9182 90.0543 24.7966L88.6317 25.6857L88.3136 25.3034C87.4852 24.3545 86.3208 23.7693 85.0692 23.673C83.8177 23.5766 82.5784 23.9767 81.6161 24.7877C80.9823 25.3547 80.5353 26.1027 80.3348 26.9319C80.1343 27.7611 80.1899 28.6321 80.494 29.4288C80.7814 30.2485 81.3079 30.9619 82.0047 31.4758C82.7014 31.9897 83.536 32.2803 84.3994 32.3094C85.2177 32.3693 86.0377 32.2178 86.7815 31.8692C87.5253 31.5207 88.1683 30.9866 88.6494 30.3178Z" fill="#141B3D"/>
<path d="M94.2954 22.5208H92.5459V33.9278H94.2954V22.5208Z" fill="#141B3D"/>
<path d="M113.433 22.5295H111.666V33.9366H113.433V22.5295Z" fill="#141B3D"/>
<path d="M92.5108 19.1509H94.278V21.6314C93.6772 21.2669 93.1293 20.9468 92.5904 20.5912C92.5197 20.5912 92.4932 20.4134 92.4932 20.3156C92.4932 19.9422 92.4932 19.5776 92.4932 19.1509" fill="#141B3D"/>
<path d="M94.2956 20.5734V19.1509H92.5107V20.5734L94.3044 21.6314L94.2956 20.5734Z" fill="#141B3D"/>
<path d="M108.936 18.5464V17.9685H107.124V18.4753C107.124 19.7911 107.124 21.1426 107.124 22.4317V23.7654L106.674 23.3742C106.016 22.7785 105.226 22.3499 104.369 22.1241C103.513 21.8983 102.616 21.8818 101.752 22.0761C100.976 22.245 100.242 22.5678 99.5912 23.0256C98.9407 23.4835 98.3875 24.0672 97.9638 24.7427C97.5402 25.4182 97.2546 26.1718 97.1237 26.9597C96.9929 27.7475 97.0194 28.5537 97.2017 29.3311C97.5215 30.8063 98.3893 32.1029 99.6277 32.9557C100.866 33.8085 102.381 34.153 103.864 33.9188C105.292 33.779 106.612 33.0935 107.552 32.0034C108.492 30.9133 108.981 29.5017 108.918 28.0597C108.918 24.8856 108.918 21.7205 108.918 18.5464H108.936ZM103.06 32.2028C101.967 32.1527 100.936 31.6807 100.181 30.885C99.4251 30.0893 99.0035 29.0312 99.0035 27.9308C99.0035 26.8303 99.4251 25.7722 100.181 24.9765C100.936 24.1809 101.967 23.7088 103.06 23.6587C104.152 23.7088 105.184 24.1809 105.939 24.9765C106.694 25.7722 107.116 26.8303 107.116 27.9308C107.116 29.0312 106.694 30.0893 105.939 30.885C105.184 31.6807 104.152 32.1527 103.06 32.2028Z" fill="#141B3D"/>
<path d="M34.3181 16.217V42.7919L38.3207 48.5532L64.8633 58.2621L34.3181 16.217Z" fill="#ED6D0F"/>
<path d="M30.5452 42.0451V15.4702L26.5426 9.70887L0 0L30.5452 42.0451Z" fill="#E94E16"/>
<path d="M6.7771 50.6247L20.393 28.0774L30.5453 42.045L25.9418 48.3487L6.7771 50.6247Z" fill="#C31322"/>
<path d="M59.5265 5.69904L44.4704 30.2113L34.3181 16.2436L38.9215 9.94L59.5265 5.69904Z" fill="#C31322"/>
<mask id="mask0_1733_13059" style="mask-type:alpha" maskUnits="userSpaceOnUse" x="34" y="5" width="26" height="26">
<path d="M59.5265 5.69904L44.4704 30.2113L34.3181 16.2436L38.9215 9.94L59.5265 5.69904Z" fill="#C31322"/>
</mask>
<g mask="url(#mask0_1733_13059)">
<path d="M44.6909 -1.90253L23.4099 18.9142L44.1222 40.3536L65.4032 19.5368L44.6909 -1.90253Z" fill="url(#paint0_linear_1733_13059)"/>
</g>
<mask id="mask1_1733_13059" style="mask-type:alpha" maskUnits="userSpaceOnUse" x="6" y="28" width="25" height="23">
<path d="M6.7771 50.6247L20.393 28.0774L30.5453 42.045L25.9418 48.3487L6.7771 50.6247Z" fill="#C31322"/>
</mask>
<g mask="url(#mask1_1733_13059)">
<path d="M21.9549 19.1843L2.38452 38.3278L21.4524 58.065L41.0228 38.9215L21.9549 19.1843Z" fill="url(#paint1_linear_1733_13059)"/>
</g>
<path d="M65.2864 44.2411V42.5326H66.4812L67.3158 44.2411H67.7731L66.8985 42.4636C67.4244 42.3198 67.7331 41.9056 67.7331 41.3131C67.7331 40.5826 67.23 40.1224 66.4011 40.1224H64.8748V44.2411H65.2864ZM65.2864 40.4963H66.4011C66.9614 40.4963 67.3101 40.7896 67.3101 41.3246C67.3101 41.8481 66.9785 42.1587 66.4126 42.1587H65.2864V40.4963Z" fill="#141B3D"/>
<path d="M69.4052 44.3101C70.0569 44.3101 70.4857 43.9937 70.6343 43.407H70.257C70.1541 43.7751 69.8626 43.9707 69.4109 43.9707C68.8164 43.9707 68.462 43.5796 68.4334 42.9008H70.6343V42.7052C70.6343 41.9171 70.1255 41.3821 69.3766 41.3821C68.5877 41.3821 68.0504 41.9804 68.0504 42.849C68.0504 43.7234 68.5934 44.3101 69.4052 44.3101ZM69.3766 41.7215C69.8969 41.7215 70.2399 42.0782 70.2399 42.6132H68.4448C68.5134 42.0667 68.8564 41.7215 69.3766 41.7215Z" fill="#141B3D"/>
<path d="M71.0306 43.4588C71.0306 43.9765 71.4193 44.3101 72.0425 44.3101C72.6713 44.3101 73.0943 43.9822 73.0943 43.4818C73.0943 43.0791 72.8771 42.8548 72.3969 42.734L71.9224 42.6132C71.6194 42.5384 71.4708 42.3888 71.4708 42.176C71.4708 41.8768 71.688 41.71 72.0768 41.71C72.4484 41.71 72.6713 41.8999 72.6827 42.222H73.0658C73.0486 41.7043 72.6713 41.3821 72.0882 41.3821C71.4937 41.3821 71.0878 41.6928 71.0878 42.1817C71.0878 42.5614 71.3222 42.8145 71.8024 42.9353L72.2768 43.0561C72.6027 43.1366 72.717 43.2689 72.717 43.499C72.717 43.7982 72.4655 43.9822 72.0367 43.9822C71.648 43.9822 71.4079 43.7809 71.4079 43.4588H71.0306Z" fill="#141B3D"/>
<path d="M74.3783 44.2411V41.7906H74.9328V41.4569H74.3783V40.5768H73.9895V41.4569H73.435V41.7906H73.9895V44.2411H74.3783Z" fill="#141B3D"/>
<path d="M77.1177 44.2411L77.5179 43.1481H79.4044L79.8046 44.2411H80.2333L78.7127 40.1224H78.2039L76.7004 44.2411H77.1177ZM78.404 40.7034C78.4268 40.6458 78.4497 40.571 78.4554 40.5365C78.4611 40.5768 78.4897 40.6458 78.5069 40.7034L79.2729 42.7857H77.6437L78.404 40.7034Z" fill="#141B3D"/>
<path d="M80.4822 43.4588C80.4822 43.9765 80.8709 44.3101 81.494 44.3101C82.1229 44.3101 82.5459 43.9822 82.5459 43.4818C82.5459 43.0791 82.3287 42.8548 81.8485 42.734L81.374 42.6132C81.071 42.5384 80.9224 42.3888 80.9224 42.176C80.9224 41.8768 81.1396 41.71 81.5284 41.71C81.8999 41.71 82.1229 41.8999 82.1343 42.222H82.5173C82.5002 41.7043 82.1229 41.3821 81.5398 41.3821C80.9452 41.3821 80.5394 41.6928 80.5394 42.1817C80.5394 42.5614 80.7737 42.8145 81.2539 42.9353L81.7284 43.0561C82.0543 43.1366 82.1686 43.2689 82.1686 43.499C82.1686 43.7982 81.9171 43.9822 81.4883 43.9822C81.0996 43.9822 80.8595 43.7809 80.8595 43.4588H80.4822Z" fill="#141B3D"/>
<path d="M82.9609 43.4588C82.9609 43.9765 83.3497 44.3101 83.9728 44.3101C84.6016 44.3101 85.0247 43.9822 85.0247 43.4818C85.0247 43.0791 84.8074 42.8548 84.3272 42.734L83.8527 42.6132C83.5497 42.5384 83.4011 42.3888 83.4011 42.176C83.4011 41.8768 83.6184 41.71 84.0071 41.71C84.3787 41.71 84.6016 41.8999 84.6131 42.222H84.9961C84.9789 41.7043 84.6016 41.3821 84.0185 41.3821C83.424 41.3821 83.0181 41.6928 83.0181 42.1817C83.0181 42.5614 83.2525 42.8145 83.7327 42.9353L84.2072 43.0561C84.533 43.1366 84.6474 43.2689 84.6474 43.499C84.6474 43.7982 84.3958 43.9822 83.9671 43.9822C83.5783 43.9822 83.3382 43.7809 83.3382 43.4588H82.9609Z" fill="#141B3D"/>
<path d="M87.6177 41.4569V42.9353C87.6177 43.5968 87.3033 43.9535 86.7717 43.9535C86.3315 43.9535 86.0399 43.7176 86.0399 43.0561V41.4512H85.6397V43.1826C85.6397 43.8614 85.9942 44.3101 86.6459 44.3101C87.0804 44.3101 87.4634 44.0915 87.6177 43.7694L87.6692 44.2411H88.0122V41.4569H87.6177Z" fill="#141B3D"/>
<path d="M90.2802 41.4224C90.183 41.3994 90.1087 41.3936 90.023 41.3936C89.6342 41.3936 89.3427 41.5892 89.2341 41.8883L89.2055 41.4569H88.8339V44.2411H89.2283V42.6534C89.2283 42.1242 89.5542 41.7791 90.063 41.7791H90.2802V41.4224Z" fill="#141B3D"/>
<path d="M91.859 44.3101C92.5107 44.3101 92.9395 43.9937 93.0881 43.407H92.7108C92.6079 43.7751 92.3164 43.9707 91.8647 43.9707C91.2702 43.9707 90.9158 43.5796 90.8872 42.9008H93.0881V42.7052C93.0881 41.9171 92.5793 41.3821 91.8304 41.3821C91.0415 41.3821 90.5042 41.9804 90.5042 42.849C90.5042 43.7234 91.0472 44.3101 91.859 44.3101ZM91.8304 41.7215C92.3507 41.7215 92.6937 42.0782 92.6937 42.6132H90.8986C90.9672 42.0667 91.3102 41.7215 91.8304 41.7215Z" fill="#141B3D"/>
<path d="M94.805 44.3101C95.268 44.3101 95.6568 44.103 95.8511 43.6716L95.8911 44.2411H96.2341V40.0476H95.8397V41.9861C95.6453 41.5835 95.2794 41.3821 94.8221 41.3821C93.9989 41.3821 93.5244 42.0149 93.5244 42.8548C93.5244 43.6889 93.9989 44.3101 94.805 44.3101ZM94.8736 43.9477C94.2733 43.9477 93.9246 43.4875 93.9246 42.8433C93.9246 42.2047 94.2733 41.7388 94.8736 41.7388C95.4795 41.7388 95.834 42.2047 95.834 42.8433C95.834 43.4875 95.4795 43.9477 94.8736 43.9477Z" fill="#141B3D"/>
<path d="M97.3946 44.3044C97.5889 44.3044 97.7547 44.1433 97.7547 43.9535C97.7547 43.7579 97.5889 43.5911 97.3946 43.5911C97.2002 43.5911 97.0344 43.7579 97.0344 43.9535C97.0344 44.1433 97.2002 44.3044 97.3946 44.3044Z" fill="#141B3D"/>
<path d="M100.636 40.1224H100.225V44.2411H100.636V40.1224Z" fill="#141B3D"/>
<path d="M102.18 44.2411V41.7906H102.735V41.4569H102.18V40.5768H101.792V41.4569H101.237V41.7906H101.792V44.2411H102.18Z" fill="#141B3D"/>
<path d="M103.602 40.4042C103.625 40.2029 103.488 40.1109 103.368 40.1109C103.242 40.1109 103.099 40.2029 103.122 40.4042L103.237 41.549H103.494L103.602 40.4042Z" fill="#141B3D"/>
<path d="M103.93 43.4588C103.93 43.9765 104.318 44.3101 104.942 44.3101C105.57 44.3101 105.993 43.9822 105.993 43.4818C105.993 43.0791 105.776 42.8548 105.296 42.734L104.822 42.6132C104.519 42.5384 104.37 42.3888 104.37 42.176C104.37 41.8768 104.587 41.71 104.976 41.71C105.347 41.71 105.57 41.8999 105.582 42.222H105.965C105.948 41.7043 105.57 41.3821 104.987 41.3821C104.393 41.3821 103.987 41.6928 103.987 42.1817C103.987 42.5614 104.221 42.8145 104.701 42.9353L105.176 43.0561C105.502 43.1366 105.616 43.2689 105.616 43.499C105.616 43.7982 105.365 43.9822 104.936 43.9822C104.547 43.9822 104.307 43.7809 104.307 43.4588H103.93Z" fill="#141B3D"/>
<path d="M108.068 41.1923C108.068 41.756 108.406 42.1242 109.046 42.2795L109.738 42.4521C110.178 42.5556 110.384 42.7972 110.384 43.1654C110.384 43.6371 110.001 43.9305 109.4 43.9305C108.84 43.9305 108.463 43.6486 108.44 43.2172H108.017C108.068 43.8902 108.606 44.3101 109.4 44.3101C110.246 44.3101 110.795 43.8557 110.795 43.1424C110.795 42.5844 110.464 42.2162 109.823 42.0609L109.12 41.8883C108.691 41.7791 108.48 41.549 108.48 41.1866C108.48 40.7206 108.857 40.4215 109.435 40.4215C109.949 40.4215 110.263 40.6861 110.309 41.152H110.727C110.664 40.4618 110.178 40.0476 109.44 40.0476C108.617 40.0476 108.068 40.502 108.068 41.1923Z" fill="#141B3D"/>
<path d="M112.61 44.3101C113.262 44.3101 113.691 43.9937 113.839 43.407H113.462C113.359 43.7751 113.067 43.9707 112.616 43.9707C112.021 43.9707 111.667 43.5796 111.638 42.9008H113.839V42.7052C113.839 41.9171 113.33 41.3821 112.581 41.3821C111.793 41.3821 111.255 41.9804 111.255 42.849C111.255 43.7234 111.798 44.3101 112.61 44.3101ZM112.581 41.7215C113.102 41.7215 113.445 42.0782 113.445 42.6132H111.65C111.718 42.0667 112.061 41.7215 112.581 41.7215Z" fill="#141B3D"/>
<path d="M114.275 42.8548C114.275 43.7291 114.807 44.3101 115.59 44.3101C116.219 44.3101 116.711 43.9362 116.842 43.3667H116.442C116.333 43.7234 116.002 43.9535 115.59 43.9535C115.03 43.9535 114.664 43.5105 114.664 42.849C114.664 42.1645 115.059 41.733 115.619 41.733C116.002 41.733 116.333 41.9459 116.436 42.3313H116.831C116.722 41.756 116.253 41.3821 115.613 41.3821C114.807 41.3821 114.275 41.9804 114.275 42.8548Z" fill="#141B3D"/>
<path d="M119.384 41.4569V42.9353C119.384 43.5968 119.069 43.9535 118.537 43.9535C118.097 43.9535 117.806 43.7176 117.806 43.0561V41.4512H117.406V43.1826C117.406 43.8614 117.76 44.3101 118.412 44.3101C118.846 44.3101 119.229 44.0915 119.384 43.7694L119.435 44.2411H119.778V41.4569H119.384Z" fill="#141B3D"/>
<path d="M122.046 41.4224C121.949 41.3994 121.875 41.3936 121.789 41.3936C121.4 41.3936 121.108 41.5892 121 41.8883L120.971 41.4569H120.6V44.2411H120.994V42.6534C120.994 42.1242 121.32 41.7791 121.829 41.7791H122.046V41.4224Z" fill="#141B3D"/>
<path d="M123.625 44.3101C124.277 44.3101 124.705 43.9937 124.854 43.407H124.477C124.374 43.7751 124.082 43.9707 123.631 43.9707C123.036 43.9707 122.682 43.5796 122.653 42.9008H124.854V42.7052C124.854 41.9171 124.345 41.3821 123.596 41.3821C122.807 41.3821 122.27 41.9804 122.27 42.849C122.27 43.7234 122.813 44.3101 123.625 44.3101ZM123.596 41.7215C124.116 41.7215 124.459 42.0782 124.459 42.6132H122.664C122.733 42.0667 123.076 41.7215 123.596 41.7215Z" fill="#141B3D"/>
<path d="M126.571 44.3101C127.034 44.3101 127.423 44.103 127.617 43.6716L127.657 44.2411H128V40.0476H127.605V41.9861C127.411 41.5835 127.045 41.3821 126.588 41.3821C125.765 41.3821 125.29 42.0149 125.29 42.8548C125.29 43.6889 125.765 44.3101 126.571 44.3101ZM126.639 43.9477C126.039 43.9477 125.69 43.4875 125.69 42.8433C125.69 42.2047 126.039 41.7388 126.639 41.7388C127.245 41.7388 127.6 42.2047 127.6 42.8433C127.6 43.4875 127.245 43.9477 126.639 43.9477Z" fill="#141B3D"/>
<defs>
<linearGradient id="paint0_linear_1733_13059" x1="69.2238" y1="-5.29706" x2="11.7574" y2="50.2205" gradientUnits="userSpaceOnUse">
<stop stop-color="#C01422"/>
<stop offset="0.31" stop-color="#C01422"/>
<stop offset="0.61" stop-color="#231F20"/>
<stop offset="1" stop-color="#231F20"/>
</linearGradient>
<linearGradient id="paint1_linear_1733_13059" x1="0.392655" y1="59.0596" x2="48.9866" y2="12.1135" gradientUnits="userSpaceOnUse">
<stop stop-color="#C01422"/>
<stop offset="0.31" stop-color="#C01422"/>
<stop offset="0.61" stop-color="#231F20"/>
<stop offset="1" stop-color="#231F20"/>
</linearGradient>
</defs>
</svg>
